Neuton-light.ufo
<glyph name="exclam" format="1">
  <advance width="552"/>
  <unicode hex="0021"/>
  <outline>
    <contour>
      <point x="180" y="98" type="curve" smooth="yes"/>
      <point x="180" y="173"/>
      <point x="229.5" y="227.5"/>
      <point x="291" y="227.5" type="curve" smooth="yes"/>
      <point x="354.5" y="227.5"/>
      <point x="405.5" y="171.5"/>
      <point x="405.5" y="96.5" type="curve" smooth="yes"/>
      <point x="405.5" y="17.5"/>
      <point x="362.5" y="-43"/>
      <point x="291.5" y="-43" type="curve" smooth="yes"/>
      <point x="223" y="-43"/>
      <point x="180" y="21"/>
    </contour>
    <contour>
      <point x="199.5" y="1543" type="curve" smooth="yes"/>
      <point x="199.5" y="1546.5" type="line" smooth="no"/>
      <point x="210" y="1580.5"/>
      <point x="279" y="1595.5"/>
      <point x="323.5" y="1595.5" type="curve" smooth="yes"/>
      <point x="356.5" y="1595.5"/>
      <point x="396" y="1584.5"/>
      <point x="396" y="1546.5" type="curve" smooth="yes"/>
      <point x="396" y="1338.5"/>
      <point x="365.5" y="846"/>
      <point x="332.5" y="448" type="curve" smooth="no"/>
      <point x="329" y="441.5" type="line" smooth="no"/>
      <point x="249" y="459" type="line" smooth="no"/>
      <point x="249" y="463.5" type="line" smooth="no"/>
      <point x="224.5" y="857.5"/>
      <point x="199.5" y="1408.5"/>
    </contour>
  </outline>
</glyph>
<glyph name="numbersign" format="1">
  <advance width="1128"/>
  <unicode hex="0023"/>
  <outline>
    <contour>
      <point x="339" y="-23" type="line" smooth="no"/>
      <point x="225" y="-32" type="line" smooth="no"/>
      <point x="443" y="1419" type="line" smooth="no"/>
      <point x="557" y="1431" type="line" smooth="no"/>
    </contour>
    <contour>
      <point x="51" y="878" type="line" smooth="no"/>
      <point x="85" y="1003" type="line" smooth="no"/>
      <point x="1208" y="1003" type="line" smooth="no"/>
      <point x="1177" y="878" type="line" smooth="no"/>
    </contour>
    <contour>
      <point x="-37" y="402" type="line" smooth="no"/>
      <point x="-4" y="527" type="line" smooth="no"/>
      <point x="1116" y="527" type="line" smooth="no"/>
      <point x="1084" y="402" type="line" smooth="no"/>
    </contour>
    <contour>
      <point x="731" y="-23" type="line" smooth="no"/>
      <point x="616" y="-32" type="line" smooth="no"/>
      <point x="834" y="1419" type="line" smooth="no"/>
      <point x="949" y="1430" type="line" smooth="no"/>
    </contour>
  </outline>
</glyph>
<glyph name="ampersand" format="1">
  <advance width="1582"/>
  <unicode hex="0026"/>
  <outline>
    <contour>
      <point x="68.5" y="343" type="curve" smooth="yes"/>
      <point x="68.5" y="555.5"/>
      <point x="226" y="711"/>
      <point x="435.5" y="847" type="curve" smooth="no"/>
      <point x="353" y="933"/>
      <point x="260.5" y="1066.5"/>
      <point x="260.5" y="1202.5" type="curve" smooth="yes"/>
      <point x="260.5" y="1395.5"/>
      <point x="428.5" y="1569"/>
      <point x="625.5" y="1569" type="curve" smooth="yes"/>
      <point x="832" y="1569"/>
      <point x="962" y="1460.5"/>
      <point x="962" y="1253" type="curve" smooth="yes"/>
      <point x="962" y="1102.5"/>
      <point x="839" y="980"/>
      <point x="664" y="863" type="curve" smooth="no"/>
      <point x="664" y="855" type="line" smooth="no"/>
      <point x="964" y="514" type="line" smooth="no"/>
      <point x="1189" y="888.5" type="line" smooth="no"/>
      <point x="996" y="933.5" type="line" smooth="no"/>
      <point x="1003.5" y="1001.5" type="line" smooth="no"/>
      <point x="1527" y="1001.5" type="line" smooth="no"/>
      <point x="1517.5" y="933.5" type="line" smooth="no"/>
      <point x="1309" y="891.5" type="line" smooth="no"/>
      <point x="1038.5" y="439" type="line" smooth="no"/>
      <point x="1226.5" y="217"/>
      <point x="1370" y="107.5"/>
      <point x="1463" y="78.5" type="curve" smooth="yes"/>
      <point x="1511.5" y="64" type="line" smooth="no"/>
      <point x="1498.5" y="-2" type="line" smooth="no"/>
      <point x="1449" y="-19.5"/>
      <point x="1417.5" y="-24.5"/>
      <point x="1368" y="-24.5" type="curve" smooth="yes"/>
      <point x="1239.5" y="-24.5"/>
      <point x="1127" y="73.5"/>
      <point x="1057.5" y="150" type="curve" smooth="yes"/>
      <point x="939.5" y="280" type="line" smooth="no"/>
      <point x="830" y="120"/>
      <point x="697.5" y="-24.5"/>
      <point x="459.5" y="-24.5" type="curve" smooth="yes"/>
      <point x="223" y="-24.5"/>
      <point x="68.5" y="129"/>
    </contour>
    <contour>
      <point x="254" y="415.5" type="curve" smooth="yes"/>
      <point x="254" y="248"/>
      <point x="353.5" y="105.5"/>
      <point x="522.5" y="105.5" type="curve" smooth="yes"/>
      <point x="674.5" y="105.5"/>
      <point x="791.5" y="224"/>
      <point x="867.5" y="353" type="curve" smooth="no"/>
      <point x="499.5" y="772" type="line" smooth="no"/>
      <point x="487.5" y="773.5" type="line" smooth="no"/>
      <point x="365.5" y="685"/>
      <point x="254" y="573"/>
    </contour>
    <contour>
      <point x="408.5" y="1264.5" type="curve" smooth="yes"/>
      <point x="408.5" y="1147"/>
      <point x="509.5" y="1017"/>
      <point x="595.5" y="928" type="curve" smooth="no"/>
      <point x="710.5" y="1011"/>
      <point x="796" y="1090.5"/>
      <point x="796" y="1226.5" type="curve" smooth="yes"/>
      <point x="796" y="1365"/>
      <point x="722.5" y="1480.5"/>
      <point x="596" y="1480.5" type="curve" smooth="yes"/>
      <point x="480.5" y="1480.5"/>
      <point x="408.5" y="1375"/>
    </contour>
  </outline>
</glyph>
<glyph name="asterisk" format="1">
  <advance width="732"/>
  <unicode hex="002a"/>
  <outline>
    <contour>
      <point x="433" y="1592.5" type="line" smooth="no"/>
      <point x="584.5" y="1579" type="line" smooth="no"/>
      <point x="552.5" y="1214" type="line" smooth="no"/>
      <point x="912" y="1370" type="line" smooth="no"/>
      <point x="945.5" y="1221.5" type="line" smooth="no"/>
      <point x="584.5" y="1142" type="line" smooth="no"/>
      <point x="847" y="846.5" type="line" smooth="no"/>
      <point x="717.5" y="768.5" type="line" smooth="no"/>
      <point x="526" y="1087.5" type="line" smooth="no"/>
      <point x="326.5" y="745.5" type="line" smooth="no"/>
      <point x="212" y="845" type="line" smooth="no"/>
      <point x="456.5" y="1125" type="line" smooth="no"/>
      <point x="73.5" y="1206" type="line" smooth="no"/>
      <point x="133" y="1347" type="line" smooth="no"/>
      <point x="473.5" y="1201.5" type="line" smooth="no"/>
    </contour>
  </outline>
</glyph>
<glyph name="zero" format="1">
  <advance width="1215"/>
  <unicode hex="0030"/>
  <outline>
    <contour>
      <point x="129" y="724.5" type="curve" smooth="yes"/>
      <point x="129" y="1220"/>
      <point x="361" y="1484"/>
      <point x="634" y="1484" type="curve" smooth="yes"/>
      <point x="931" y="1484"/>
      <point x="1122.5" y="1227.5"/>
      <point x="1122.5" y="724.5" type="curve" smooth="yes"/>
      <point x="1122.5" y="179.5"/>
      <point x="877.5" y="-33"/>
      <point x="632.5" y="-33" type="curve" smooth="yes"/>
      <point x="355" y="-33"/>
      <point x="129" y="165"/>
    </contour>
    <contour>
      <point x="336.5" y="720" type="curve" smooth="yes"/>
      <point x="336.5" y="280.5"/>
      <point x="434.5" y="59.5"/>
      <point x="635.5" y="59.5" type="curve" smooth="yes"/>
      <point x="833" y="59.5"/>
      <point x="913.5" y="280.5"/>
      <point x="913.5" y="724.5" type="curve" smooth="yes"/>
      <point x="913.5" y="1136"/>
      <point x="828.5" y="1388"/>
      <point x="630.5" y="1388" type="curve" smooth="yes"/>
      <point x="418.5" y="1388"/>
      <point x="336.5" y="1134.5"/>
    </contour>
  </outline>
</glyph>
<glyph name="nine" format="1">
  <advance width="1156"/>
  <unicode hex="0039"/>
  <outline>
    <contour>
      <point x="130.5" y="1009" type="curve" smooth="yes"/>
      <point x="130.5" y="1286.5"/>
      <point x="349.5" y="1492"/>
      <point x="601.5" y="1492" type="curve" smooth="yes"/>
      <point x="921" y="1492"/>
      <point x="1048" y="1226"/>
      <point x="1048" y="937.5" type="curve" smooth="yes"/>
      <point x="1048" y="484"/>
      <point x="753.5" y="52"/>
      <point x="291" y="-33.5" type="curve" smooth="no"/>
      <point x="268" y="38.5" type="line" smooth="no"/>
      <point x="670" y="158"/>
      <point x="797" y="437.5"/>
      <point x="833.5" y="711" type="curve" smooth="no"/>
      <point x="821" y="711" type="line" smooth="no"/>
      <point x="743.5" y="637.5"/>
      <point x="642.5" y="582"/>
      <point x="502.5" y="582" type="curve" smooth="yes"/>
      <point x="264" y="582"/>
      <point x="130.5" y="763"/>
    </contour>
    <contour>
      <point x="326" y="1052" type="curve" smooth="yes"/>
      <point x="326" y="861"/>
      <point x="416.5" y="697.5"/>
      <point x="602.5" y="697.5" type="curve" smooth="yes"/>
      <point x="712.5" y="697.5"/>
      <point x="803.5" y="750.5"/>
      <point x="838" y="803.5" type="curve" smooth="no"/>
      <point x="848" y="858.5"/>
      <point x="849" y="931"/>
      <point x="849" y="978" type="curve" smooth="yes"/>
      <point x="849" y="1230"/>
      <point x="730.5" y="1411"/>
      <point x="583" y="1411" type="curve" smooth="yes"/>
      <point x="396" y="1411"/>
      <point x="326" y="1277.5"/>
    </contour>
  </outline>
</glyph>
<glyph name="A" format="1">
  <advance width="1634"/>
  <unicode hex="0041"/>
  <outline>
    <contour>
      <point x="43.5" y="0" type="line" smooth="no"/>
      <point x="52.5" y="71" type="line" smooth="no"/>
      <point x="231.5" y="124" type="line" smooth="no"/>
      <point x="772" y="1537" type="line" smooth="no"/>
      <point x="898.5" y="1564.5" type="line" smooth="no"/>
      <point x="1394.5" y="117.5" type="line" smooth="no"/>
      <point x="1561" y="79" type="line" smooth="no"/>
      <point x="1551" y="0.5" type="line" smooth="no"/>
      <point x="980.5" y="0.5" type="line" smooth="no"/>
      <point x="993" y="71.5" type="line" smooth="no"/>
      <point x="1201.5" y="124.5" type="line" smooth="no"/>
      <point x="1048" y="561.5" type="line" smooth="no"/>
      <point x="524" y="561.5" type="line" smooth="no"/>
      <point x="362.5" y="117" type="line" smooth="no"/>
      <point x="591.5" y="78" type="line" smooth="no"/>
      <point x="578.5" y="0" type="line" smooth="no"/>
    </contour>
    <contour>
      <point x="559" y="658.5" type="line" smooth="no"/>
      <point x="1018.5" y="658.5" type="line" smooth="no"/>
      <point x="797" y="1307.5" type="line" smooth="no"/>
    </contour>
  </outline>
</glyph>
<glyph name="H" format="1">
  <advance width="1784"/>
  <unicode hex="0048"/>
  <outline>
    <contour>
      <point x="103" y="1464" type="line" smooth="no"/>
      <point x="111.5" y="1535" type="line" smooth="no"/>
      <point x="728.5" y="1535" type="line" smooth="no"/>
      <point x="719.5" y="1464" type="line" smooth="no"/>
      <point x="511" y="1426" type="line" smooth="no"/>
      <point x="511" y="828.5" type="line" smooth="no"/>
      <point x="1341.5" y="828.5" type="line" smooth="no"/>
      <point x="1341.5" y="1423" type="line" smooth="no"/>
      <point x="1115" y="1464" type="line" smooth="no"/>
      <point x="1126" y="1535" type="line" smooth="no"/>
      <point x="1743" y="1535" type="line" smooth="no"/>
      <point x="1731.5" y="1464" type="line" smooth="no"/>
      <point x="1526" y="1426" type="line" smooth="no"/>
      <point x="1526" y="111" type="line" smooth="no"/>
      <point x="1750.5" y="78" type="line" smooth="no"/>
      <point x="1740" y="0" type="line" smooth="no"/>
      <point x="1125" y="0" type="line" smooth="no"/>
      <point x="1137" y="71" type="line" smooth="no"/>
      <point x="1341.5" y="119" type="line" smooth="no"/>
      <point x="1341.5" y="730" type="line" smooth="no"/>
      <point x="511" y="728.5" type="line" smooth="no"/>
      <point x="511" y="111" type="line" smooth="no"/>
      <point x="740" y="78" type="line" smooth="no"/>
      <point x="725.5" y="0" type="line" smooth="no"/>
      <point x="112.5" y="0" type="line" smooth="no"/>
      <point x="120" y="71" type="line" smooth="no"/>
      <point x="326.5" y="119" type="line" smooth="no"/>
      <point x="326.5" y="1423" type="line" smooth="no"/>
    </contour>
  </outline>
</glyph>
<glyph name="M" format="1">
  <advance width="2074"/>
  <unicode hex="004d"/>
  <outline>
    <contour>
      <point x="63" y="0" type="line" smooth="no"/>
      <point x="73" y="66" type="line" smooth="no"/>
      <point x="279.5" y="114" type="line" smooth="no"/>
      <point x="375" y="1420" type="line" smooth="no"/>
      <point x="148" y="1466" type="line" smooth="no"/>
      <point x="159.5" y="1535" type="line" smooth="no"/>
      <point x="603" y="1535" type="line" smooth="no"/>
      <point x="695.5" y="1299.5" type="line" smooth="no"/>
      <point x="1050" y="330" type="line" smooth="no"/>
      <point x="1462" y="1347" type="line" smooth="no"/>
      <point x="1544" y="1535" type="line" smooth="no"/>
      <point x="1989" y="1535" type="line" smooth="no"/>
      <point x="1979.5" y="1466" type="line" smooth="no"/>
      <point x="1769.5" y="1424" type="line" smooth="no"/>
      <point x="1835.5" y="105.5" type="line" smooth="no"/>
      <point x="2059" y="74" type="line" smooth="no"/>
      <point x="2051.5" y="0" type="line" smooth="no"/>
      <point x="1435.5" y="0" type="line" smooth="no"/>
      <point x="1446" y="66" type="line" smooth="no"/>
      <point x="1654.5" y="114" type="line" smooth="no"/>
      <point x="1584.5" y="1340.5" type="line" smooth="no"/>
      <point x="1062.5" y="68" type="line" smooth="no"/>
      <point x="952.5" y="50" type="line" smooth="no"/>
      <point x="489" y="1306.5" type="line" smooth="no"/>
      <point x="401" y="105.5" type="line" smooth="no"/>
      <point x="626.5" y="74" type="line" smooth="no"/>
      <point x="614.5" y="0" type="line" smooth="no"/>
    </contour>
  </outline>
</glyph>
<glyph name="N" format="1">
  <advance width="1730"/>
  <unicode hex="004e"/>
  <outline>
    <contour>
      <point x="77.5" y="1466" type="line" smooth="no"/>
      <point x="89.5" y="1535" type="line" smooth="no"/>
      <point x="493" y="1535" type="line" smooth="no"/>
      <point x="1316" y="278" type="line" smooth="no"/>
      <point x="1316" y="1423" type="line" smooth="no"/>
      <point x="1088" y="1464" type="line" smooth="no"/>
      <point x="1099.5" y="1535" type="line" smooth="no"/>
      <point x="1654.5" y="1535" type="line" smooth="no"/>
      <point x="1641" y="1464" type="line" smooth="no"/>
      <point x="1435.5" y="1426" type="line" smooth="no"/>
      <point x="1435.5" y="-3.5" type="line" smooth="no"/>
      <point x="1308" y="-29.5" type="line" smooth="no"/>
      <point x="428" y="1292" type="line" smooth="no"/>
      <point x="428" y="111" type="line" smooth="no"/>
      <point x="655" y="78" type="line" smooth="no"/>
      <point x="642.5" y="0" type="line" smooth="no"/>
      <point x="90" y="0" type="line" smooth="no"/>
      <point x="98" y="71" type="line" smooth="no"/>
      <point x="304" y="119" type="line" smooth="no"/>
      <point x="304" y="1414.5" type="line" smooth="no"/>
    </contour>
  </outline>
</glyph>
<glyph name="V" format="1">
  <advance width="1553"/>
  <unicode hex="0056"/>
  <outline>
    <contour>
      <point x="47" y="1466" type="line" smooth="no"/>
      <point x="56" y="1535" type="line" smooth="no"/>
      <point x="650" y="1535" type="line" smooth="no"/>
      <point x="641" y="1466" type="line" smooth="no"/>
      <point x="433" y="1426" type="line" smooth="no"/>
      <point x="839.5" y="254" type="line" smooth="no"/>
      <point x="1269" y="1421.5" type="line" smooth="no"/>
      <point x="1041.5" y="1466" type="line" smooth="no"/>
      <point x="1048" y="1535" type="line" smooth="no"/>
      <point x="1569.5" y="1535" type="line" smooth="no"/>
      <point x="1563" y="1466" type="line" smooth="no"/>
      <point x="1402" y="1426" type="line" smooth="no"/>
      <point x="867.5" y="-4.5" type="line" smooth="no"/>
      <point x="742" y="-30.5" type="line" smooth="no"/>
      <point x="228.5" y="1421.5" type="line" smooth="no"/>
    </contour>
  </outline>
</glyph>
<glyph name="Z" format="1">
  <advance width="1297"/>
  <unicode hex="005a"/>
  <outline>
    <contour>
      <point x="55.5" y="87" type="line" smooth="no"/>
      <point x="1010" y="1443" type="line" smooth="no"/>
      <point x="286.5" y="1443" type="line" smooth="no"/>
      <point x="190.5" y="1114.5" type="line" smooth="no"/>
      <point x="110.5" y="1132" type="line" smooth="no"/>
      <point x="122" y="1535" type="line" smooth="no"/>
      <point x="1235.5" y="1535" type="line" smooth="no"/>
      <point x="1238" y="1465.5" type="line" smooth="no"/>
      <point x="270" y="97.5" type="line" smooth="no"/>
      <point x="1033" y="97.5" type="line" smooth="no"/>
      <point x="1174.5" y="427.5" type="line" smooth="no"/>
      <point x="1259.5" y="414" type="line" smooth="no"/>
      <point x="1200" y="0" type="line" smooth="no"/>
      <point x="64" y="0" type="line" smooth="no"/>
    </contour>
  </outline>
</glyph>
<glyph name="backslash" format="1">
  <advance width="754"/>
  <unicode hex="005c"/>
  <outline>
    <contour>
      <point x="39.5" y="1553.5" type="line" smooth="no"/>
      <point x="173" y="1546.5" type="line" smooth="no"/>
      <point x="743" y="-453" type="line" smooth="no"/>
      <point x="614.5" y="-446" type="line" smooth="no"/>
    </contour>
  </outline>
</glyph>
<glyph name="f" format="1">
  <advance width="804"/>
  <unicode hex="0066"/>
  <outline>
    <contour>
      <point x="86.5" y="0" type="line" smooth="no"/>
      <point x="101.5" y="63.5" type="line" smooth="no"/>
      <point x="288.5" y="107.5" type="line" smooth="no"/>
      <point x="288.5" y="976" type="line" smooth="no"/>
      <point x="105" y="976" type="line" smooth="no"/>
      <point x="119.5" y="1042.5" type="line" smooth="no"/>
      <point x="290.5" y="1070" type="line" smooth="no"/>
      <point x="326.5" y="1444"/>
      <point x="543.5" y="1609.5"/>
      <point x="718.5" y="1609.5" type="curve" smooth="yes"/>
      <point x="849" y="1609.5"/>
      <point x="938" y="1554.5"/>
      <point x="938" y="1470" type="curve" smooth="yes"/>
      <point x="938" y="1415.5"/>
      <point x="894" y="1372"/>
      <point x="853" y="1356" type="curve" smooth="no"/>
      <point x="806.5" y="1422.5"/>
      <point x="726.5" y="1505"/>
      <point x="634.5" y="1505" type="curve" smooth="yes"/>
      <point x="539" y="1505"/>
      <point x="458" y="1417.5"/>
      <point x="455.5" y="1210.5" type="curve" smooth="no"/>
      <point x="454.5" y="1062" type="line" smooth="no"/>
      <point x="772" y="1062" type="line" smooth="no"/>
      <point x="756.5" y="976" type="line" smooth="no"/>
      <point x="454.5" y="976" type="line" smooth="no"/>
      <point x="454.5" y="112" type="line" smooth="no"/>
      <point x="757.5" y="75.5" type="line" smooth="no"/>
      <point x="748.5" y="0" type="line" smooth="no"/>
    </contour>
  </outline>
</glyph>
<glyph name="j" format="1">
  <advance width="568"/>
  <unicode hex="006a"/>
  <outline>
    <contour>
      <point x="4.5" y="-389" type="line" smooth="no"/>
      <point x="137.5" y="-289.5"/>
      <point x="266.5" y="-136.5"/>
      <point x="266.5" y="197.5" type="curve" smooth="yes"/>
      <point x="266.5" y="938" type="line" smooth="no"/>
      <point x="80.5" y="988.5" type="line" smooth="no"/>
      <point x="91.5" y="1054.5" type="line" smooth="no"/>
      <point x="409.5" y="1080" type="line" smooth="no"/>
      <point x="430" y="1059" type="line" smooth="no"/>
      <point x="430" y="186" type="line" smooth="yes"/>
      <point x="430" y="-143"/>
      <point x="285.5" y="-328.5"/>
      <point x="110" y="-439" type="curve" smooth="yes"/>
      <point x="55.5" y="-473" type="line" smooth="no"/>
    </contour>
    <contour>
      <point x="224" y="1469.5" type="curve" smooth="yes"/>
      <point x="224" y="1550"/>
      <point x="271.5" y="1602.5"/>
      <point x="339.5" y="1602.5" type="curve" smooth="yes"/>
      <point x="406" y="1602.5"/>
      <point x="455.5" y="1549"/>
      <point x="455.5" y="1469" type="curve" smooth="yes"/>
      <point x="455.5" y="1386.5"/>
      <point x="409" y="1329"/>
      <point x="339" y="1329" type="curve" smooth="yes"/>
      <point x="269" y="1329"/>
      <point x="224" y="1388.5"/>
    </contour>
  </outline>
</glyph>
<glyph name="k" format="1">
  <advance width="1206"/>
  <unicode hex="006b"/>
  <outline>
    <contour>
      <point x="72.5" y="0" type="line" smooth="no"/>
      <point x="85" y="68" type="line" smooth="no"/>
      <point x="274.5" y="107.5" type="line" smooth="no"/>
      <point x="274.5" y="1420" type="line" smooth="no"/>
      <point x="82.5" y="1471" type="line" smooth="no"/>
      <point x="89.5" y="1535" type="line" smooth="no"/>
      <point x="414.5" y="1561.5" type="line" smooth="no"/>
      <point x="434.5" y="1541" type="line" smooth="no"/>
      <point x="434.5" y="107.5" type="line" smooth="no"/>
      <point x="631" y="70" type="line" smooth="no"/>
      <point x="620" y="0" type="line" smooth="no"/>
    </contour>
    <contour>
      <point x="471.5" y="529" type="line" smooth="no"/>
      <point x="471.5" y="551" type="line" smooth="no"/>
      <point x="823.5" y="963.5" type="line" smooth="no"/>
      <point x="659" y="1008.5" type="line" smooth="no"/>
      <point x="668.5" y="1077" type="line" smooth="no"/>
      <point x="1154" y="1077" type="line" smooth="no"/>
      <point x="1140.5" y="1010" type="line" smooth="no"/>
      <point x="956" y="964.5" type="line" smooth="no"/>
      <point x="629.5" y="584" type="line" smooth="no"/>
      <point x="752" y="437.5" type="line" smooth="yes"/>
      <point x="951.5" y="199"/>
      <point x="1006.5" y="99"/>
      <point x="1162" y="79.5" type="curve" smooth="yes"/>
      <point x="1210.5" y="73" type="line" smooth="no"/>
      <point x="1199.5" y="0" type="line" smooth="no"/>
      <point x="1181" y="-6"/>
      <point x="1117" y="-24.5"/>
      <point x="1062" y="-24.5" type="curve" smooth="yes"/>
      <point x="919" y="-24.5"/>
      <point x="845.5" y="52.5"/>
      <point x="637" y="318" type="curve" smooth="no"/>
    </contour>
  </outline>
</glyph>
<glyph name="p" format="1">
  <advance width="1207"/>
  <unicode hex="0070"/>
  <outline>
    <contour>
      <point x="64.5" y="-460.5" type="line" smooth="no"/>
      <point x="71.5" y="-388" type="line" smooth="no"/>
      <point x="258.5" y="-351" type="line" smooth="no"/>
      <point x="258.5" y="930.5" type="line" smooth="no"/>
      <point x="69" y="976.5" type="line" smooth="no"/>
      <point x="78.5" y="1042" type="line" smooth="no"/>
      <point x="405.5" y="1077.5" type="line" smooth="no"/>
      <point x="422" y="1060" type="line" smooth="no"/>
      <point x="410.5" y="891" type="line" smooth="no"/>
      <point x="419.5" y="891" type="line" smooth="no"/>
      <point x="482" y="978"/>
      <point x="603.5" y="1093.5"/>
      <point x="765" y="1093.5" type="curve" smooth="yes"/>
      <point x="976" y="1093.5"/>
      <point x="1134.5" y="938"/>
      <point x="1134.5" y="569.5" type="curve" smooth="yes"/>
      <point x="1134.5" y="218"/>
      <point x="907" y="-24.5"/>
      <point x="595" y="-24.5" type="curve" smooth="yes"/>
      <point x="558.5" y="-24.5"/>
      <point x="509.5" y="-19.5"/>
      <point x="468.5" y="-11.5" type="curve" smooth="no"/>
      <point x="462.5" y="107" type="line" smooth="no"/>
      <point x="519.5" y="85"/>
      <point x="563.5" y="79.5"/>
      <point x="661" y="79.5" type="curve" smooth="yes"/>
      <point x="832" y="79.5"/>
      <point x="959.5" y="233"/>
      <point x="959.5" y="498.5" type="curve" smooth="yes"/>
      <point x="959.5" y="787"/>
      <point x="874.5" y="963"/>
      <point x="683.5" y="963" type="curve" smooth="yes"/>
      <point x="568.5" y="963"/>
      <point x="481.5" y="881.5"/>
      <point x="419.5" y="817" type="curve" smooth="no"/>
      <point x="419.5" y="-353" type="line" smooth="no"/>
      <point x="611.5" y="-385" type="line" smooth="no"/>
      <point x="599.5" y="-460.5" type="line" smooth="no"/>
    </contour>
  </outline>
</glyph>
<glyph name="s" format="1">
  <advance width="854"/>
  <unicode hex="0073"/>
  <outline>
    <contour>
      <point x="87.5" y="190" type="curve" smooth="yes"/>
      <point x="87.5" y="266.5"/>
      <point x="145" y="316.5"/>
      <point x="218" y="325.5" type="curve" smooth="no"/>
      <point x="260" y="130"/>
      <point x="337.5" y="49"/>
      <point x="468.5" y="49" type="curve" smooth="yes"/>
      <point x="574" y="49"/>
      <point x="653" y="111"/>
      <point x="653" y="197.5" type="curve" smooth="yes"/>
      <point x="653" y="416"/>
      <point x="133" y="464.5"/>
      <point x="133" y="786" type="curve" smooth="yes"/>
      <point x="133" y="930"/>
      <point x="240" y="1096.5"/>
      <point x="474.5" y="1096.5" type="curve" smooth="yes"/>
      <point x="635.5" y="1096.5"/>
      <point x="759" y="1005"/>
      <point x="759" y="880" type="curve" smooth="yes"/>
      <point x="759" y="785.5"/>
      <point x="702.5" y="742.5"/>
      <point x="629" y="736.5" type="curve" smooth="no"/>
      <point x="619" y="784.5" type="line" smooth="yes"/>
      <point x="576" y="974"/>
      <point x="501" y="1017.5"/>
      <point x="427.5" y="1017.5" type="curve" smooth="yes"/>
      <point x="325" y="1017.5"/>
      <point x="264.5" y="955.5"/>
      <point x="264.5" y="864" type="curve" smooth="yes"/>
      <point x="264.5" y="616.5"/>
      <point x="798" y="569"/>
      <point x="798" y="262" type="curve" smooth="yes"/>
      <point x="798" y="79"/>
      <point x="620" y="-43"/>
      <point x="429.5" y="-43" type="curve" smooth="yes"/>
      <point x="232.5" y="-43"/>
      <point x="87.5" y="56"/>
    </contour>
  </outline>
</glyph>
<glyph name="v" format="1">
  <advance width="1137"/>
  <unicode hex="0076"/>
  <outline>
    <contour>
      <point x="37.5" y="994" type="line" smooth="no"/>
      <point x="45.5" y="1062" type="line" smooth="no"/>
      <point x="546.5" y="1062" type="line" smooth="no"/>
      <point x="540" y="996.5" type="line" smooth="no"/>
      <point x="360.5" y="950.5" type="line" smooth="no"/>
      <point x="618.5" y="199" type="line" smooth="no"/>
      <point x="880" y="949" type="line" smooth="no"/>
      <point x="682" y="994" type="line" smooth="no"/>
      <point x="696" y="1062" type="line" smooth="no"/>
      <point x="1138" y="1062" type="line" smooth="no"/>
      <point x="1127" y="996.5" type="line" smooth="no"/>
      <point x="993.5" y="950.5" type="line" smooth="no"/>
      <point x="646.5" y="-13" type="line" smooth="no"/>
      <point x="535.5" y="-32.5" type="line" smooth="no"/>
      <point x="187" y="949" type="line" smooth="no"/>
    </contour>
  </outline>
</glyph>
<glyph name="braceright" format="1">
  <advance width="750"/>
  <unicode hex="007d"/>
  <outline>
    <contour>
      <point x="39" y="-466.5" type="line" smooth="no"/>
      <point x="49" y="-374" type="line" smooth="no"/>
      <point x="156.5" y="-366.5" type="line" smooth="no"/>
      <point x="411" y="-353.5"/>
      <point x="114" y="455"/>
      <point x="501" y="540" type="curve" smooth="no"/>
      <point x="501" y="546" type="line" smooth="no"/>
      <point x="114" y="641"/>
      <point x="413.5" y="1433"/>
      <point x="171" y="1449" type="curve" smooth="no"/>
      <point x="55" y="1458" type="line" smooth="no"/>
      <point x="45.5" y="1549" type="line" smooth="no"/>
      <point x="171" y="1549" type="line" smooth="yes"/>
      <point x="675.5" y="1549"/>
      <point x="263.5" y="650"/>
      <point x="629.5" y="597" type="curve" smooth="no"/>
      <point x="689.5" y="587" type="line" smooth="no"/>
      <point x="689.5" y="496" type="line" smooth="no"/>
      <point x="625.5" y="487.5" type="line" smooth="yes"/>
      <point x="264" y="438"/>
      <point x="678" y="-466.5"/>
      <point x="166.5" y="-466.5" type="curve" smooth="yes"/>
    </contour>
  </outline>
</glyph>
<glyph name="asciitilde" format="1">
  <advance width="1169"/>
  <unicode hex="007e"/>
  <outline>
    <contour>
      <point x="102" y="514.5" type="line" smooth="no"/>
      <point x="102" y="514.5"/>
      <point x="177" y="794"/>
      <point x="367" y="756" type="curve" smooth="yes"/>
      <point x="860" y="668" type="line" smooth="yes"/>
      <point x="945" y="649"/>
      <point x="1004" y="769.5"/>
      <point x="1004" y="769.5" type="curve" smooth="no"/>
      <point x="1072" y="768" type="line" smooth="no"/>
      <point x="1072" y="768"/>
      <point x="992" y="481.5"/>
      <point x="798.5" y="520.5" type="curve" smooth="yes"/>
      <point x="306" y="608" type="line" smooth="yes"/>
      <point x="224.5" y="626"/>
      <point x="160" y="498"/>
      <point x="160" y="498" type="curve" smooth="no"/>
    </contour>
  </outline>
</glyph>
<glyph name="exclamdown" format="1">
  <advance width="536"/>
  <unicode hex="00a1"/>
  <outline>
    <contour>
      <point x="166.5" y="-465" type="curve" smooth="yes"/>
      <point x="166.5" y="-257"/>
      <point x="196.5" y="248.5"/>
      <point x="229.5" y="646.5" type="curve" smooth="no"/>
      <point x="233" y="652.5" type="line" smooth="no"/>
      <point x="312.5" y="635" type="line" smooth="no"/>
      <point x="312.5" y="631.5" type="line" smooth="no"/>
      <point x="337" y="237.5"/>
      <point x="363.5" y="-327.5"/>
      <point x="363.5" y="-462" type="curve" smooth="yes"/>
      <point x="363.5" y="-465" type="line" smooth="no"/>
      <point x="353" y="-499"/>
      <point x="283.5" y="-514.5"/>
      <point x="239" y="-514.5" type="curve" smooth="yes"/>
      <point x="206" y="-514.5"/>
      <point x="166.5" y="-503"/>
    </contour>
    <contour>
      <point x="157" y="983" type="curve" smooth="yes"/>
      <point x="157" y="1062"/>
      <point x="199.5" y="1123"/>
      <point x="270.5" y="1123" type="curve" smooth="yes"/>
      <point x="339" y="1123"/>
      <point x="382.5" y="1059.5"/>
      <point x="382.5" y="982.5" type="curve" smooth="yes"/>
      <point x="382.5" y="907.5"/>
      <point x="332" y="853.5"/>
      <point x="270.5" y="853.5" type="curve" smooth="yes"/>
      <point x="207" y="853.5"/>
      <point x="157" y="908"/>
    </contour>
  </outline>
</glyph>
<glyph name="ordfeminine" format="1">
  <advance width="561"/>
  <unicode hex="00aa"/>
  <outline>
    <contour>
      <point x="70.5" y="353.5" type="line" smooth="no"/>
      <point x="79.5" y="416" type="line" smooth="no"/>
      <point x="497.5" y="416" type="line" smooth="no"/>
      <point x="489.5" y="353.5" type="line" smooth="no"/>
    </contour>
    <contour>
      <point x="105.5" y="591" type="curve" smooth="yes"/>
      <point x="105.5" y="662"/>
      <point x="170.5" y="725.5"/>
      <point x="332" y="751.5" type="curve" smooth="no"/>
      <point x="332" y="779" type="line" smooth="yes"/>
      <point x="332" y="854"/>
      <point x="306.5" y="910.5"/>
      <point x="241" y="910.5" type="curve" smooth="yes"/>
      <point x="195" y="910.5"/>
      <point x="191" y="873.5"/>
      <point x="183" y="813" type="curve" smooth="no"/>
      <point x="156.5" y="813"/>
      <point x="121" y="814.5"/>
      <point x="121" y="863.5" type="curve" smooth="yes"/>
      <point x="121" y="916.5"/>
      <point x="212.5" y="958"/>
      <point x="282" y="958" type="curve" smooth="yes"/>
      <point x="369" y="958"/>
      <point x="403" y="908.5"/>
      <point x="403" y="805" type="curve" smooth="yes"/>
      <point x="403" y="625.5" type="line" smooth="yes"/>
      <point x="403" y="574.5"/>
      <point x="420.5" y="566"/>
      <point x="471.5" y="558.5" type="curve" smooth="no"/>
      <point x="479.5" y="535" type="line" smooth="no"/>
      <point x="467" y="533"/>
      <point x="457" y="508"/>
      <point x="442.5" y="508" type="curve" smooth="no"/>
      <point x="402" y="506"/>
      <point x="394" y="522"/>
      <point x="379.5" y="537.5" type="curve" smooth="no"/>
      <point x="351" y="537.5"/>
      <point x="341" y="558"/>
      <point x="341" y="573" type="curve" smooth="no"/>
      <point x="338.5" y="576.5" type="line" smooth="no"/>
      <point x="330.5" y="559.5"/>
      <point x="302" y="539.5"/>
      <point x="269" y="539.5" type="curve" smooth="no"/>
      <point x="235.5" y="522.5"/>
      <point x="267" y="501.5"/>
      <point x="201.5" y="501.5" type="curve" smooth="yes"/>
      <point x="151" y="501.5"/>
      <point x="105.5" y="530.5"/>
    </contour>
    <contour>
      <point x="182" y="613" type="curve" smooth="yes"/>
      <point x="182" y="572"/>
      <point x="202.5" y="554"/>
      <point x="236.5" y="554" type="curve" smooth="yes"/>
      <point x="277.5" y="554"/>
      <point x="320.5" y="592.5"/>
      <point x="332" y="612" type="curve" smooth="no"/>
      <point x="332" y="712" type="line" smooth="no"/>
      <point x="210" y="693.5"/>
      <point x="182" y="659"/>
    </contour>
  </outline>
</glyph>
<glyph name="softhyphen" format="1">
  <advance width="707"/>
  <unicode hex="00ad"/>
  <outline>
    <contour>
      <point x="101" y="518.5" type="line" smooth="no"/>
      <point x="110.5" y="628" type="line" smooth="no"/>
      <point x="614.5" y="703" type="line" smooth="no"/>
      <point x="604" y="592" type="line" smooth="no"/>
    </contour>
  </outline>
</glyph>
<glyph name="registered" format="1">
  <advance width="630"/>
  <unicode hex="00ae"/>
  <outline>
    <contour>
      <point x="38" y="1318.5" type="curve" smooth="yes"/>
      <point x="38" y="1496.5"/>
      <point x="145.5" y="1614"/>
      <point x="312" y="1614" type="curve" smooth="yes"/>
      <point x="482" y="1614"/>
      <point x="596" y="1495"/>
      <point x="596" y="1320" type="curve" smooth="yes"/>
      <point x="596" y="1146"/>
      <point x="481" y="1033"/>
      <point x="307" y="1033" type="curve" smooth="yes"/>
      <point x="145.5" y="1033"/>
      <point x="38" y="1147.5"/>
    </contour>
    <contour>
      <point x="85.5" y="1327.5" type="curve" smooth="yes"/>
      <point x="85.5" y="1176"/>
      <point x="176" y="1073.5"/>
      <point x="310.5" y="1073.5" type="curve" smooth="yes"/>
      <point x="452" y="1073.5"/>
      <point x="549.5" y="1169.5"/>
      <point x="549.5" y="1314.5" type="curve" smooth="yes"/>
      <point x="549.5" y="1472"/>
      <point x="451" y="1575"/>
      <point x="312" y="1575" type="curve" smooth="yes"/>
      <point x="175" y="1575"/>
      <point x="85.5" y="1476.5"/>
    </contour>
    <contour>
      <point x="172.5" y="1177" type="line" smooth="no"/>
      <point x="174" y="1199" type="line" smooth="no"/>
      <point x="219" y="1209.5" type="line" smooth="no"/>
      <point x="219" y="1453.5" type="line" smooth="no"/>
      <point x="174" y="1461.5" type="line" smooth="no"/>
      <point x="176.5" y="1483" type="line" smooth="no"/>
      <point x="217.5" y="1487"/>
      <point x="257" y="1491.5"/>
      <point x="286" y="1491.5" type="curve" smooth="yes"/>
      <point x="381.5" y="1491.5"/>
      <point x="420" y="1464"/>
      <point x="420" y="1413.5" type="curve" smooth="yes"/>
      <point x="420" y="1383"/>
      <point x="398" y="1353"/>
      <point x="352" y="1333.5" type="curve" smooth="no"/>
      <point x="401" y="1266" type="line" smooth="no"/>
      <point x="423.5" y="1233"/>
      <point x="445" y="1211.5"/>
      <point x="478" y="1200.5" type="curve" smooth="no"/>
      <point x="478.5" y="1188" type="line" smooth="no"/>
      <point x="473" y="1186"/>
      <point x="466" y="1174.5"/>
      <point x="460.5" y="1174.5" type="curve" smooth="no"/>
      <point x="435.5" y="1172.5"/>
      <point x="414.5" y="1187.5"/>
      <point x="398.5" y="1206.5" type="curve" smooth="no"/>
      <point x="379.5" y="1206.5"/>
      <point x="343" y="1255"/>
      <point x="332" y="1274" type="curve" smooth="no"/>
      <point x="293" y="1308.5" type="line" smooth="no"/>
      <point x="273.5" y="1259.5" type="line" smooth="no"/>
      <point x="294.5" y="1205" type="line" smooth="no"/>
      <point x="315" y="1188" type="line" smooth="no"/>
      <point x="314" y="1177" type="line" smooth="no"/>
    </contour>
    <contour>
      <point x="273.5" y="1338.5" type="line" smooth="no"/>
      <point x="316" y="1338.5" type="line" smooth="yes"/>
      <point x="345" y="1338.5"/>
      <point x="359" y="1367"/>
      <point x="359" y="1403.5" type="curve" smooth="yes"/>
      <point x="359" y="1441.5"/>
      <point x="331" y="1463.5"/>
      <point x="293" y="1463.5" type="curve" smooth="yes"/>
      <point x="285" y="1463.5"/>
      <point x="273.5" y="1461.5"/>
      <point x="273.5" y="1461.5" type="curve" smooth="no"/>
    </contour>
  </outline>
</glyph>
<glyph name="paragraph" format="1">
  <advance width="1593"/>
  <unicode hex="00b6"/>
  <outline>
    <contour>
      <point x="178" y="1031" type="curve" smooth="yes"/>
      <point x="178" y="1324"/>
      <point x="442.5" y="1536"/>
      <point x="745.5" y="1536" type="curve" smooth="yes"/>
      <point x="1071.5" y="1536" type="line" smooth="no"/>
      <point x="1071.5" y="0.5" type="line" smooth="no"/>
      <point x="621.5" y="0.5" type="line" smooth="no"/>
      <point x="629.5" y="71.5" type="line" smooth="no"/>
      <point x="911.5" y="119.5" type="line" smooth="no"/>
      <point x="911.5" y="1442" type="line" smooth="no"/>
      <point x="861" y="1444"/>
      <point x="812.5" y="1444.5"/>
      <point x="801" y="1444.5" type="curve" smooth="yes"/>
      <point x="511.5" y="1444.5"/>
      <point x="386.5" y="1306"/>
      <point x="386.5" y="1050.5" type="curve" smooth="yes"/>
      <point x="386.5" y="839.5"/>
      <point x="525" y="662.5"/>
      <point x="792" y="662.5" type="curve" smooth="no"/>
      <point x="770" y="571" type="line" smooth="no"/>
      <point x="448.5" y="571"/>
      <point x="178" y="671"/>
    </contour>
    <contour>
      <point x="1154.5" y="0.5" type="line" smooth="no"/>
      <point x="1154.5" y="1536" type="line" smooth="no"/>
      <point x="1527.5" y="1536" type="line" smooth="no"/>
      <point x="1518.5" y="1465.5" type="line" smooth="no"/>
      <point x="1305" y="1427.5" type="line" smooth="no"/>
      <point x="1305" y="110" type="line" smooth="no"/>
      <point x="1535" y="78" type="line" smooth="no"/>
      <point x="1523" y="-1" type="line" smooth="no"/>
    </contour>
  </outline>
</glyph>
<glyph name="periodcentered" format="1">
  <advance width="497"/>
  <unicode hex="00b7"/>
  <outline>
    <contour>
      <point x="137.5" y="621" type="curve" smooth="yes"/>
      <point x="137.5" y="699.5"/>
      <point x="184" y="750.5"/>
      <point x="250" y="750.5" type="curve" smooth="yes"/>
      <point x="316.5" y="750.5"/>
      <point x="364" y="699.5"/>
      <point x="364" y="620.5" type="curve" smooth="yes"/>
      <point x="364" y="538"/>
      <point x="319.5" y="482.5"/>
      <point x="250.5" y="482.5" type="curve" smooth="yes"/>
      <point x="181.5" y="482.5"/>
      <point x="137.5" y="540"/>
    </contour>
  </outline>
</glyph>
<glyph name="onequarter" format="1">
  <advance width="1242"/>
  <unicode hex="00bc"/>
  <outline>
    <contour>
      <point x="88.5" y="618.5" type="line" smooth="no"/>
      <point x="91" y="656" type="line" smooth="no"/>
      <point x="231.5" y="679" type="line" smooth="no"/>
      <point x="231.5" y="1128.5" type="line" smooth="no"/>
      <point x="99" y="1128.5" type="line" smooth="no"/>
      <point x="102.5" y="1166.5" type="line" smooth="no"/>
      <point x="304" y="1204" type="line" smooth="no"/>
      <point x="316" y="1204" type="line" smooth="no"/>
      <point x="316" y="675.5" type="line" smooth="no"/>
      <point x="452" y="660" type="line" smooth="no"/>
      <point x="446.5" y="618.5" type="line" smooth="no"/>
    </contour>
    <contour>
      <point x="174.5" y="-36.5" type="line" smooth="no"/>
      <point x="1024.5" y="1185" type="line" smooth="no"/>
      <point x="1125" y="1194.5" type="line" smooth="no"/>
      <point x="277" y="-26.5" type="line" smooth="no"/>
    </contour>
    <contour>
      <point x="692" y="213" type="line" smooth="no"/>
      <point x="997" y="589" type="line" smooth="no"/>
      <point x="1029" y="580.5" type="line" smooth="no"/>
      <point x="1025.5" y="523"/>
      <point x="1024.5" y="426.5"/>
      <point x="1024.5" y="336.5" type="curve" smooth="yes"/>
      <point x="1024.5" y="236.5" type="line" smooth="no"/>
      <point x="1150.5" y="236.5" type="line" smooth="no"/>
      <point x="1142.5" y="175" type="line" smooth="no"/>
      <point x="1024.5" y="175" type="line" smooth="no"/>
      <point x="1024.5" y="7" type="line" smooth="no"/>
      <point x="944" y="-6" type="line" smooth="no"/>
      <point x="944" y="176.5" type="line" smooth="no"/>
      <point x="703.5" y="176.5" type="line" smooth="no"/>
    </contour>
    <contour>
      <point x="775.5" y="236.5" type="line" smooth="no"/>
      <point x="941.5" y="236.5" type="line" smooth="no"/>
      <point x="941.5" y="448" type="line" smooth="no"/>
    </contour>
  </outline>
</glyph>
<glyph name="germandbls" format="1">
  <advance width="1395"/>
  <unicode hex="00df"/>
  <outline>
    <contour>
      <point x="86" y="0" type="line" smooth="no"/>
      <point x="101" y="63.5" type="line" smooth="no"/>
      <point x="287.5" y="107.5" type="line" smooth="no"/>
      <point x="287.5" y="992" type="line" smooth="no"/>
      <point x="106.5" y="992" type="line" smooth="no"/>
      <point x="120" y="1052.5" type="line" smooth="no"/>
      <point x="290.5" y="1081.5" type="line" smooth="no"/>
      <point x="307" y="1364.5"/>
      <point x="466.5" y="1609"/>
      <point x="742.5" y="1609" type="curve" smooth="yes"/>
      <point x="928" y="1609"/>
      <point x="1073" y="1486.5"/>
      <point x="1073" y="1300.5" type="curve" smooth="no"/>
      <point x="1073" y="1080"/>
      <point x="806" y="977"/>
      <point x="806" y="841" type="curve" smooth="yes"/>
      <point x="806" y="605"/>
      <point x="1336.5" y="567"/>
      <point x="1336.5" y="264" type="curve" smooth="yes"/>
      <point x="1336.5" y="81"/>
      <point x="1160.5" y="-41"/>
      <point x="970" y="-41" type="curve" smooth="yes"/>
      <point x="773" y="-41"/>
      <point x="626.5" y="61"/>
      <point x="626.5" y="195" type="curve" smooth="yes"/>
      <point x="626.5" y="283"/>
      <point x="689.5" y="325"/>
      <point x="756.5" y="332.5" type="curve" smooth="no"/>
      <point x="791" y="143"/>
      <point x="876.5" y="51"/>
      <point x="1007.5" y="51" type="curve" smooth="yes"/>
      <point x="1113" y="51"/>
      <point x="1192.5" y="106.5"/>
      <point x="1192.5" y="198.5" type="curve" smooth="yes"/>
      <point x="1192.5" y="391"/>
      <point x="678.5" y="449.5"/>
      <point x="678.5" y="765" type="curve" smooth="yes"/>
      <point x="678.5" y="993.5"/>
      <point x="918" y="1064.5"/>
      <point x="918" y="1247.5" type="curve" smooth="no"/>
      <point x="918" y="1391.5"/>
      <point x="803" y="1504.5"/>
      <point x="667" y="1504.5" type="curve" smooth="yes"/>
      <point x="529" y="1504.5"/>
      <point x="454" y="1384"/>
      <point x="454" y="1166.5" type="curve" smooth="yes"/>
      <point x="454.5" y="0" type="line" smooth="no"/>
    </contour>
  </outline>
</glyph>
<glyph name="Hbar" format="1">
  <advance width="1789"/>
  <unicode hex="0126"/>
  <outline>
    <component base="H" xOffset="17.5"/>
    <contour>
      <point x="152" y="1120.5" type="line" smooth="no"/>
      <point x="163" y="1235.5" type="line" smooth="no"/>
      <point x="401" y="1235.5" type="line" smooth="no"/>
      <point x="442" y="1221.5" type="line" smooth="no"/>
      <point x="1436" y="1221.5" type="line" smooth="no"/>
      <point x="1460" y="1235.5" type="line" smooth="no"/>
      <point x="1699" y="1235.5" type="line" smooth="no"/>
      <point x="1691" y="1120.5" type="line" smooth="no"/>
      <point x="1466" y="1120.5" type="line" smooth="no"/>
      <point x="1436" y="1135.5" type="line" smooth="no"/>
      <point x="435" y="1135.5" type="line" smooth="no"/>
      <point x="401" y="1120.5" type="line" smooth="no"/>
    </contour>
  </outline>
</glyph>
<glyph name="hbar" format="1">
  <advance width="1291"/>
  <unicode hex="0127"/>
  <outline>
    <component base="h" xOffset="-14.5"/>
    <contour>
      <point x="37.5" y="1206" type="line" smooth="no"/>
      <point x="47.5" y="1287" type="line" smooth="no"/>
      <point x="823" y="1287" type="line" smooth="no"/>
      <point x="813.5" y="1206" type="line" smooth="no"/>
    </contour>
  </outline>
</glyph>
<glyph name="lslash" format="1">
  <advance width="677"/>
  <unicode hex="0142"/>
  <outline>
    <contour>
      <point x="61.5" y="0" type="line" smooth="no"/>
      <point x="74.5" y="68" type="line" smooth="no"/>
      <point x="262.5" y="107.5" type="line" smooth="no"/>
      <point x="262.5" y="1426" type="line" smooth="no"/>
      <point x="72" y="1477" type="line" smooth="no"/>
      <point x="78.5" y="1541" type="line" smooth="no"/>
      <point x="402.5" y="1567" type="line" smooth="no"/>
      <point x="423" y="1547" type="line" smooth="no"/>
      <point x="423" y="107.5" type="line" smooth="no"/>
      <point x="621" y="70" type="line" smooth="no"/>
      <point x="607" y="0" type="line" smooth="no"/>
    </contour>
    <contour>
      <point x="64.5" y="546" type="line" smooth="no"/>
      <point x="84.5" y="677.5" type="line" smooth="no"/>
      <point x="597" y="1077" type="line" smooth="no"/>
      <point x="576" y="947.5" type="line" smooth="no"/>
    </contour>
  </outline>
</glyph>
<glyph name="circumflex" format="1">
  <advance width="759"/>
  <unicode hex="02c6"/>
  <outline>
    <contour>
      <point x="130" y="1712.5" type="line" smooth="no"/>
      <point x="337" y="1934.5" type="line" smooth="no"/>
      <point x="404.5" y="1951" type="line" smooth="no"/>
      <point x="624.5" y="1722" type="line" smooth="no"/>
      <point x="574.5" y="1676.5" type="line" smooth="no"/>
      <point x="362" y="1827.5" type="line" smooth="no"/>
      <point x="350" y="1827.5" type="line" smooth="no"/>
      <point x="167" y="1675.5" type="line" smooth="no"/>
    </contour>
  </outline>
</glyph>
<glyph name="quotereversed" format="1">
  <advance width="485"/>
  <unicode hex="201b"/>
  <outline>
    <contour>
      <point x="62.5" y="1332.5" type="curve" smooth="yes"/>
      <point x="62.5" y="1511"/>
      <point x="169.5" y="1587.5"/>
      <point x="259.5" y="1587.5" type="curve" smooth="yes"/>
      <point x="345.5" y="1587.5"/>
      <point x="419" y="1508.5"/>
      <point x="381.5" y="1409" type="curve" smooth="no"/>
      <point x="284" y="1423"/>
      <point x="208" y="1350.5"/>
      <point x="208" y="1258" type="curve" smooth="yes"/>
      <point x="208" y="1168.5"/>
      <point x="261.5" y="1078.5"/>
      <point x="430.5" y="1022.5" type="curve" smooth="no"/>
      <point x="407.5" y="953.5" type="line" smooth="no"/>
      <point x="116" y="1037.5"/>
      <point x="62.5" y="1217"/>
    </contour>
  </outline>
</glyph>
<glyph name="daggerdbl" format="1">
  <advance width="1066"/>
  <unicode hex="2021"/>
  <outline>
    <contour>
      <point x="105" y="892.5" type="line" smooth="no"/>
      <point x="115" y="1009.5" type="line" smooth="no"/>
      <point x="479" y="1000" type="line" smooth="no"/>
      <point x="469" y="1549" type="line" smooth="no"/>
      <point x="609" y="1535" type="line" smooth="no"/>
      <point x="595.5" y="1000" type="line" smooth="no"/>
      <point x="971.5" y="1009.5" type="line" smooth="no"/>
      <point x="963" y="884.5" type="line" smooth="no"/>
      <point x="595.5" y="898" type="line" smooth="no"/>
      <point x="585.5" y="529.5" type="line" smooth="no"/>
      <point x="592" y="203" type="line" smooth="no"/>
      <point x="977.5" y="211.5" type="line" smooth="no"/>
      <point x="969.5" y="93" type="line" smooth="no"/>
      <point x="592" y="104.5" type="line" smooth="no"/>
      <point x="601.5" y="-448" type="line" smooth="no"/>
      <point x="463" y="-435" type="line" smooth="no"/>
      <point x="475" y="104.5" type="line" smooth="no"/>
      <point x="121" y="93" type="line" smooth="no"/>
      <point x="129" y="219.5" type="line" smooth="no"/>
      <point x="475" y="205" type="line" smooth="no"/>
      <point x="483" y="615" type="line" smooth="no"/>
      <point x="479" y="900" type="line" smooth="no"/>
    </contour>
  </outline>
</glyph>
<glyph name="trademark" format="1">
  <advance width="1034"/>
  <unicode hex="2122"/>
  <outline>
    <contour>
      <point x="29" y="1625.5" type="line" smooth="no"/>
      <point x="391" y="1625.5" type="line" smooth="no"/>
      <point x="379" y="1512" type="line" smooth="no"/>
      <point x="342.5" y="1516" type="line" smooth="no"/>
      <point x="330.5" y="1591" type="line" smooth="no"/>
      <point x="248" y="1591" type="line" smooth="no"/>
      <point x="248" y="1266" type="line" smooth="no"/>
      <point x="309" y="1255.5" type="line" smooth="no"/>
      <point x="305" y="1223" type="line" smooth="no"/>
      <point x="109" y="1223" type="line" smooth="no"/>
      <point x="111" y="1254" type="line" smooth="no"/>
      <point x="166.5" y="1267.5" type="line" smooth="no"/>
      <point x="166.5" y="1591" type="line" smooth="no"/>
      <point x="86" y="1591" type="line" smooth="no"/>
      <point x="68" y="1512" type="line" smooth="no"/>
      <point x="33" y="1516" type="line" smooth="no"/>
    </contour>
    <contour>
      <point x="407" y="1223" type="line" smooth="no"/>
      <point x="410" y="1254" type="line" smooth="no"/>
      <point x="466" y="1267.5" type="line" smooth="no"/>
      <point x="490.5" y="1583.5" type="line" smooth="no"/>
      <point x="429" y="1595.5" type="line" smooth="no"/>
      <point x="433" y="1625.5" type="line" smooth="no"/>
      <point x="585.5" y="1625.5" type="line" smooth="no"/>
      <point x="612" y="1562" type="line" smooth="no"/>
      <point x="696.5" y="1322.5" type="line" smooth="no"/>
      <point x="797.5" y="1575" type="line" smooth="no"/>
      <point x="820" y="1625.5" type="line" smooth="no"/>
      <point x="971" y="1625.5" type="line" smooth="no"/>
      <point x="967" y="1595.5" type="line" smooth="no"/>
      <point x="911.5" y="1583.5" type="line" smooth="no"/>
      <point x="930" y="1266" type="line" smooth="no"/>
      <point x="990" y="1255.5" type="line" smooth="no"/>
      <point x="985" y="1223" type="line" smooth="no"/>
      <point x="797.5" y="1223" type="line" smooth="no"/>
      <point x="802.5" y="1254" type="line" smooth="no"/>
      <point x="855" y="1267.5" type="line" smooth="no"/>
      <point x="836.5" y="1549" type="line" smooth="no"/>
      <point x="713.5" y="1240" type="line" smooth="no"/>
      <point x="648" y="1233" type="line" smooth="no"/>
      <point x="536.5" y="1536" type="line" smooth="no"/>
      <point x="515.5" y="1266" type="line" smooth="no"/>
      <point x="576.5" y="1255.5" type="line" smooth="no"/>
      <point x="571.5" y="1223" type="line" smooth="no"/>
    </contour>
  </outline>
</glyph>
<glyph name="product" format="1">
  <advance width="1784"/>
  <unicode hex="220f"/>
  <outline>
    <contour>
      <point x="102.5" y="1464" type="line" smooth="no"/>
      <point x="110.5" y="1535" type="line" smooth="no"/>
      <point x="1742" y="1535" type="line" smooth="no"/>
      <point x="1731" y="1464" type="line" smooth="no"/>
      <point x="1525" y="1426" type="line" smooth="no"/>
      <point x="1525" y="111" type="line" smooth="no"/>
      <point x="1750" y="78" type="line" smooth="no"/>
      <point x="1739" y="0" type="line" smooth="no"/>
      <point x="1124" y="0" type="line" smooth="no"/>
      <point x="1137" y="71" type="line" smooth="no"/>
      <point x="1341" y="119" type="line" smooth="no"/>
      <point x="1341" y="1432" type="line" smooth="no"/>
      <point x="510.5" y="1431.5" type="line" smooth="no"/>
      <point x="510.5" y="111" type="line" smooth="no"/>
      <point x="740" y="78" type="line" smooth="no"/>
      <point x="725.5" y="0" type="line" smooth="no"/>
      <point x="111.5" y="0" type="line" smooth="no"/>
      <point x="119.5" y="71" type="line" smooth="no"/>
      <point x="325.5" y="119" type="line" smooth="no"/>
      <point x="325.5" y="1423" type="line" smooth="no"/>
    </contour>
  </outline>
</glyph>
<glyph name="summation" format="1">
  <advance width="1363"/>
  <unicode hex="2211"/>
  <outline>
    <contour>
      <point x="49" y="1472.5" type="line" smooth="no"/>
      <point x="63" y="1535" type="line" smooth="no"/>
      <point x="1280.5" y="1535" type="line" smooth="no"/>
      <point x="1242.5" y="1140.5" type="line" smooth="no"/>
      <point x="1161" y="1152.5" type="line" smooth="no"/>
      <point x="1124" y="1447" type="line" smooth="no"/>
      <point x="273" y="1447" type="line" smooth="no"/>
      <point x="848" y="833.5" type="line" smooth="no"/>
      <point x="842" y="785.5" type="line" smooth="no"/>
      <point x="256" y="133.5" type="line" smooth="no"/>
      <point x="1146" y="133.5" type="line" smooth="no"/>
      <point x="1251.5" y="440.5" type="line" smooth="no"/>
      <point x="1328" y="427.5" type="line" smooth="no"/>
      <point x="1291" y="0" type="line" smooth="no"/>
      <point x="58" y="0" type="line" smooth="no"/>
      <point x="58" y="71" type="line" smooth="no"/>
      <point x="685" y="763" type="line" smooth="no"/>
      <point x="685" y="776" type="line" smooth="no"/>
    </contour>
  </outline>
</glyph>
<glyph name="lozenge" format="1">
  <advance width="1162"/>
  <unicode hex="25ca"/>
  <outline>
    <contour>
      <point x="283.5" y="584.5" type="line" smooth="no"/>
      <point x="582.5" y="936" type="line" smooth="no"/>
      <point x="882.5" y="582.5" type="line" smooth="no"/>
      <point x="584.5" y="221.5" type="line" smooth="no"/>
    </contour>
  </outline>
</glyph>
<glyph name="uniF001" format="1">
  <advance width="1445"/>
  <unicode hex="f001"/>
  <outline>
    <contour>
      <point x="86.5" y="0" type="line" smooth="no"/>
      <point x="101.5" y="63.5" type="line" smooth="no"/>
      <point x="288.5" y="107.5" type="line" smooth="no"/>
      <point x="288.5" y="960.5" type="line" smooth="no"/>
      <point x="105" y="960.5" type="line" smooth="no"/>
      <point x="119.5" y="1027.5" type="line" smooth="no"/>
      <point x="290.5" y="1055" type="line" smooth="no"/>
      <point x="314.5" y="1447"/>
      <point x="537.5" y="1609.5"/>
      <point x="712.5" y="1609.5" type="curve" smooth="yes"/>
      <point x="843" y="1609.5"/>
      <point x="928" y="1554.5"/>
      <point x="928" y="1470" type="curve" smooth="yes"/>
      <point x="928" y="1415.5"/>
      <point x="884" y="1372"/>
      <point x="843" y="1356" type="curve" smooth="no"/>
      <point x="790.5" y="1441"/>
      <point x="720.5" y="1505"/>
      <point x="632.5" y="1505" type="curve" smooth="yes"/>
      <point x="537" y="1505"/>
      <point x="457" y="1417.5"/>
      <point x="455.5" y="1210.5" type="curve" smooth="yes"/>
      <point x="454.5" y="1047" type="line" smooth="no"/>
      <point x="772" y="1047" type="line" smooth="no"/>
      <point x="756.5" y="960.5" type="line" smooth="no"/>
      <point x="454.5" y="960.5" type="line" smooth="no"/>
      <point x="454.5" y="112" type="line" smooth="no"/>
      <point x="757.5" y="75.5" type="line" smooth="no"/>
      <point x="748.5" y="0" type="line" smooth="no"/>
    </contour>
    <contour>
      <point x="860" y="0" type="line" smooth="no"/>
      <point x="875.5" y="68" type="line" smooth="no"/>
      <point x="1061.5" y="107.5" type="line" smooth="no"/>
      <point x="1061.5" y="937" type="line" smooth="no"/>
      <point x="873.5" y="988.5" type="line" smooth="no"/>
      <point x="883.5" y="1052.5" type="line" smooth="no"/>
      <point x="1202.5" y="1079" type="line" smooth="no"/>
      <point x="1223" y="1057.5" type="line" smooth="no"/>
      <point x="1223" y="107.5" type="line" smooth="no"/>
      <point x="1420.5" y="70" type="line" smooth="no"/>
      <point x="1406" y="0" type="line" smooth="no"/>
    </contour>
    <contour>
      <point x="1023" y="1473" type="curve" smooth="yes"/>
      <point x="1023" y="1551.5"/>
      <point x="1068.5" y="1601.5"/>
      <point x="1133.5" y="1601.5" type="curve" smooth="yes"/>
      <point x="1200" y="1601.5"/>
      <point x="1249.5" y="1550.5"/>
      <point x="1249.5" y="1471.5" type="curve" smooth="yes"/>
      <point x="1249.5" y="1389"/>
      <point x="1203" y="1333"/>
      <point x="1134" y="1333" type="curve" smooth="yes"/>
      <point x="1065" y="1333"/>
      <point x="1023" y="1392"/>
    </contour>
  </outline>
</glyph>
<glyph name="Euro.osf" format="1">
  <advance width="1378"/>
  <outline>
    <contour>
      <point x="11" y="431.5" type="line" smooth="no"/>
      <point x="22.5" y="533.5" type="line" smooth="no"/>
      <point x="753.5" y="533.5" type="line" smooth="no"/>
      <point x="732.5" y="431.5" type="line" smooth="no"/>
    </contour>
    <contour>
      <point x="16" y="632.5" type="line" smooth="no"/>
      <point x="24" y="733.5" type="line" smooth="no"/>
      <point x="798" y="733.5" type="line" smooth="no"/>
      <point x="777" y="632.5" type="line" smooth="no"/>
    </contour>
    <contour>
      <point x="172.5" y="565.5" type="curve" smooth="yes"/>
      <point x="172.5" y="908.5"/>
      <point x="381" y="1214"/>
      <point x="730.5" y="1214" type="curve" smooth="yes"/>
      <point x="858" y="1214"/>
      <point x="957.5" y="1176.5"/>
      <point x="1051.5" y="1107.5" type="curve" smooth="no"/>
      <point x="1014" y="748" type="line" smooth="no"/>
      <point x="931.5" y="760.5" type="line" smooth="no"/>
      <point x="887.5" y="1024" type="line" smooth="no"/>
      <point x="832" y="1080"/>
      <point x="770.5" y="1116"/>
      <point x="680" y="1116" type="curve" smooth="yes"/>
      <point x="475" y="1116"/>
      <point x="379" y="925"/>
      <point x="379" y="604.5" type="curve" smooth="no"/>
      <point x="379" y="264"/>
      <point x="502" y="77"/>
      <point x="738" y="77" type="curve" smooth="yes"/>
      <point x="805.5" y="77"/>
      <point x="870.5" y="116"/>
      <point x="906.5" y="162.5" type="curve" smooth="no"/>
      <point x="946" y="424.5" type="line" smooth="no"/>
      <point x="1028.5" y="436" type="line" smooth="no"/>
      <point x="1067" y="102" type="line" smooth="no"/>
      <point x="952.5" y="10"/>
      <point x="864" y="-29.5"/>
      <point x="701" y="-29.5" type="curve" smooth="yes"/>
      <point x="375.5" y="-29.5"/>
      <point x="172.5" y="202"/>
    </contour>
  </outline>
</glyph>
<glyph name="ampersand.osf" format="1">
  <advance width="1582"/>
  <outline>
    <contour>
      <point x="193.5" y="248.5" type="curve" smooth="no"/>
      <point x="193.5" y="590.312"/>
      <point x="754.5" y="635.901"/>
      <point x="754.5" y="941" type="curve" smooth="yes"/>
      <point x="754.5" y="1052.5"/>
      <point x="693" y="1125"/>
      <point x="600" y="1125" type="curve" smooth="yes"/>
      <point x="525" y="1125"/>
      <point x="468.5" y="1058"/>
      <point x="468.5" y="968" type="curve" smooth="yes"/>
      <point x="468.5" y="880"/>
      <point x="536" y="793.5"/>
      <point x="626" y="686" type="curve" smooth="yes"/>
      <point x="919" y="324" type="line" smooth="yes"/>
      <point x="1065.5" y="144.5"/>
      <point x="1163" y="107"/>
      <point x="1258.5" y="79.5" type="curve" smooth="yes"/>
      <point x="1308.5" y="65" type="line" smooth="no"/>
      <point x="1295.5" y="-1" type="line" smooth="no"/>
      <point x="1246" y="-18.5"/>
      <point x="1213.5" y="-23.5"/>
      <point x="1164" y="-23.5" type="curve" smooth="yes"/>
      <point x="1057.5" y="-23.5"/>
      <point x="938.5" y="38"/>
      <point x="849" y="148" type="curve" smooth="yes"/>
      <point x="461" y="626" type="line" smooth="yes"/>
      <point x="387" y="716"/>
      <point x="314.5" y="814.5"/>
      <point x="314.5" y="922" type="curve" smooth="yes"/>
      <point x="314.5" y="1066.5"/>
      <point x="458" y="1210"/>
      <point x="624.5" y="1210" type="curve" smooth="yes"/>
      <point x="798.5" y="1210"/>
      <point x="903" y="1106.5"/>
      <point x="902" y="977.5" type="curve" smooth="yes"/>
      <point x="898.5" y="626.5"/>
      <point x="380" y="594.5"/>
      <point x="380" y="291.5" type="curve" smooth="yes"/>
      <point x="380" y="179.5"/>
      <point x="453" y="90.5"/>
      <point x="559" y="90.5" type="curve" smooth="yes"/>
      <point x="749" y="90.5"/>
      <point x="875" y="247"/>
      <point x="1035" y="627.5" type="curve" smooth="no"/>
      <point x="870.5" y="672" type="line" smooth="no"/>
      <point x="878" y="734.5" type="line" smooth="no"/>
      <point x="1350.5" y="734.5" type="line" smooth="no"/>
      <point x="1341" y="672" type="line" smooth="no"/>
      <point x="1149.5" y="631.5" type="line" smooth="no"/>
      <point x="957" y="258.5"/>
      <point x="858.5" y="-24.5"/>
      <point x="495.5" y="-24.5" type="curve" smooth="yes"/>
      <point x="291" y="-24.5"/>
      <point x="194" y="104.5"/>
    </contour>
  </outline>
</glyph>
<glyph name="f.alt2" format="1">
  <advance width="774"/>
  <outline>
    <contour>
      <point x="86.5" y="0" type="line" smooth="no"/>
      <point x="101.5" y="63.5" type="line" smooth="no"/>
      <point x="288.5" y="107.5" type="line" smooth="no"/>
      <point x="288.5" y="976" type="line" smooth="no"/>
      <point x="105" y="976" type="line" smooth="no"/>
      <point x="119.5" y="1042.5" type="line" smooth="no"/>
      <point x="290.5" y="1070" type="line" smooth="no"/>
      <point x="311" y="1455"/>
      <point x="500.5" y="1608"/>
      <point x="625" y="1608" type="curve" smooth="yes"/>
      <point x="721" y="1608"/>
      <point x="789" y="1581.5"/>
      <point x="789" y="1505" type="curve" smooth="yes"/>
      <point x="789" y="1456.5"/>
      <point x="758.5" y="1419"/>
      <point x="719.5" y="1401" type="curve" smooth="no"/>
      <point x="682.5" y="1453.5"/>
      <point x="627" y="1497"/>
      <point x="565" y="1497" type="curve" smooth="yes"/>
      <point x="500" y="1497"/>
      <point x="458" y="1417.5"/>
      <point x="455.5" y="1210.5" type="curve" smooth="no"/>
      <point x="454.5" y="1062" type="line" smooth="no"/>
      <point x="772" y="1062" type="line" smooth="no"/>
      <point x="756.5" y="976" type="line" smooth="no"/>
      <point x="454.5" y="976" type="line" smooth="no"/>
      <point x="454.5" y="112" type="line" smooth="no"/>
      <point x="757.5" y="75.5" type="line" smooth="no"/>
      <point x="748.5" y="0" type="line" smooth="no"/>
    </contour>
  </outline>
</glyph>
<glyph name="four.osf" format="1">
  <advance width="1165"/>
  <outline>
    <contour>
      <point x="60" y="196.5" type="line" smooth="no"/>
      <point x="811.5" y="1206" type="line" smooth="no"/>
      <point x="872.5" y="1188" type="line" smooth="no"/>
      <point x="864.5" y="1041.5"/>
      <point x="860" y="784.5"/>
      <point x="860" y="560.5" type="curve" smooth="yes"/>
      <point x="860" y="253.5" type="line" smooth="no"/>
      <point x="1174.5" y="253.5" type="line" smooth="no"/>
      <point x="1154.5" y="130" type="line" smooth="no"/>
      <point x="861" y="130" type="line" smooth="no"/>
      <point x="861" y="-332" type="line" smooth="no"/>
      <point x="688" y="-370.5" type="line" smooth="no"/>
      <point x="688" y="133.5" type="line" smooth="no"/>
      <point x="83" y="133.5" type="line" smooth="no"/>
    </contour>
    <contour>
      <point x="241" y="253.5" type="line" smooth="no"/>
      <point x="685.5" y="253.5" type="line" smooth="no"/>
      <point x="685.5" y="880.5" type="line" smooth="no"/>
    </contour>
  </outline>
</glyph>
<glyph name="nine.osf" format="1">
  <advance width="983"/>
  <outline>
    <contour>
      <point x="64" y="710.5" type="curve" smooth="yes"/>
      <point x="64" y="972.5"/>
      <point x="258.5" y="1183"/>
      <point x="503.5" y="1183" type="curve" smooth="yes"/>
      <point x="823" y="1183"/>
      <point x="923.5" y="919"/>
      <point x="923.5" y="630.5" type="curve" smooth="yes"/>
      <point x="923.5" y="216.5"/>
      <point x="605" y="-197.5"/>
      <point x="193.5" y="-334.5" type="curve" smooth="no"/>
      <point x="166" y="-262.5" type="line" smooth="no"/>
      <point x="519.5" y="-102.5"/>
      <point x="658" y="152"/>
      <point x="719.5" y="397" type="curve" smooth="no"/>
      <point x="708" y="397" type="line" smooth="no"/>
      <point x="640.5" y="327"/>
      <point x="550.5" y="274.5"/>
      <point x="413.5" y="274.5" type="curve" smooth="yes"/>
      <point x="183" y="274.5"/>
      <point x="64" y="459.5"/>
    </contour>
    <contour>
      <point x="250" y="743" type="curve" smooth="yes"/>
      <point x="250" y="522.5"/>
      <point x="334" y="388.5"/>
      <point x="504" y="388.5" type="curve" smooth="yes"/>
      <point x="610.5" y="388.5"/>
      <point x="688.5" y="438"/>
      <point x="724.5" y="491" type="curve" smooth="no"/>
      <point x="733.5" y="541.5"/>
      <point x="733.5" y="620.5"/>
      <point x="733.5" y="667.5" type="curve" smooth="yes"/>
      <point x="733.5" y="919.5"/>
      <point x="627" y="1101.5"/>
      <point x="479.5" y="1101.5" type="curve" smooth="yes"/>
      <point x="332.5" y="1101.5"/>
      <point x="250" y="985.5"/>
    </contour>
  </outline>
</glyph>
<glyph name="paragraph.osf" format="1">
  <advance width="1648"/>
  <outline>
    <contour>
      <point x="302.5" y="790" type="curve" smooth="yes"/>
      <point x="302.5" y="1048"/>
      <point x="554" y="1201"/>
      <point x="827" y="1201" type="curve" smooth="yes"/>
      <point x="1074.5" y="1201" type="line" smooth="no"/>
      <point x="1074.5" y="0.5" type="line" smooth="no"/>
      <point x="626" y="0.5" type="line" smooth="no"/>
      <point x="634" y="71.5" type="line" smooth="no"/>
      <point x="915.5" y="119.5" type="line" smooth="no"/>
      <point x="917" y="1108.5" type="line" smooth="no"/>
      <point x="871.5" y="1110.5"/>
      <point x="842" y="1111"/>
      <point x="830.5" y="1111" type="curve" smooth="yes"/>
      <point x="633.5" y="1111"/>
      <point x="504.5" y="1037.5"/>
      <point x="504.5" y="810.5" type="curve" smooth="yes"/>
      <point x="504.5" y="627"/>
      <point x="622" y="518.5"/>
      <point x="848.5" y="515" type="curve" smooth="no"/>
      <point x="828" y="421" type="line" smooth="no"/>
      <point x="516" y="421"/>
      <point x="302.5" y="499"/>
    </contour>
    <contour>
      <point x="1160" y="-1.5" type="line" smooth="no"/>
      <point x="1160" y="1202.5" type="line" smooth="no"/>
      <point x="1532.5" y="1202.5" type="line" smooth="no"/>
      <point x="1523.5" y="1131" type="line" smooth="no"/>
      <point x="1310" y="1094" type="line" smooth="no"/>
      <point x="1310" y="110" type="line" smooth="no"/>
      <point x="1540" y="78" type="line" smooth="no"/>
      <point x="1528" y="-1.5" type="line" smooth="no"/>
    </contour>
  </outline>
</glyph>
<glyph name="percent.osf" format="1">
  <advance width="1811"/>
  <outline>
    <contour>
      <point x="29" y="879" type="curve" smooth="yes"/>
      <point x="29" y="1055"/>
      <point x="166" y="1197"/>
      <point x="310.5" y="1197" type="curve" smooth="yes"/>
      <point x="330" y="1197"/>
      <point x="345" y="1196"/>
      <point x="353.5" y="1193" type="curve" smooth="no"/>
      <point x="353.5" y="1126" type="line" smooth="no"/>
      <point x="336.5" y="1135.5"/>
      <point x="329" y="1141"/>
      <point x="307" y="1141" type="curve" smooth="yes"/>
      <point x="210.5" y="1141"/>
      <point x="177" y="996"/>
      <point x="177" y="878" type="curve" smooth="yes"/>
      <point x="177" y="756.5"/>
      <point x="222" y="624.5"/>
      <point x="309.5" y="624.5" type="curve" smooth="yes"/>
      <point x="408.5" y="624.5"/>
      <point x="448" y="754.5"/>
      <point x="448" y="879" type="curve" smooth="yes"/>
      <point x="448" y="1019.5"/>
      <point x="414.5" y="1124"/>
      <point x="393" y="1180" type="curve" smooth="no"/>
      <point x="1038.5" y="1195" type="line" smooth="no"/>
      <point x="1050" y="1114.5" type="line" smooth="no"/>
      <point x="523" y="1123.5" type="line" smooth="no"/>
      <point x="569" y="1074"/>
      <point x="596" y="930.5"/>
      <point x="596" y="878" type="curve" smooth="yes"/>
      <point x="596" y="698.5"/>
      <point x="447" y="560.5"/>
      <point x="309.5" y="560.5" type="curve" smooth="yes"/>
      <point x="160.5" y="560.5"/>
      <point x="29" y="679.5"/>
    </contour>
    <contour>
      <point x="154.5" y="-26" type="line" smooth="no"/>
      <point x="607.5" y="572" type="line" smooth="no"/>
      <point x="1038.5" y="1195" type="line" smooth="no"/>
      <point x="1195.5" y="1190.5" type="line" smooth="no"/>
      <point x="1194.5" y="1173" type="line" smooth="no"/>
      <point x="742.5" y="576.5" type="line" smooth="no"/>
      <point x="328" y="-40.5" type="line" smooth="no"/>
    </contour>
    <contour>
      <point x="754" y="275" type="curve" smooth="yes"/>
      <point x="754" y="451"/>
      <point x="891.5" y="593.5"/>
      <point x="1036" y="593.5" type="curve" smooth="yes"/>
      <point x="1202" y="593.5"/>
      <point x="1321" y="458.5"/>
      <point x="1321" y="272" type="curve" smooth="yes"/>
      <point x="1321" y="96"/>
      <point x="1176" y="-42"/>
      <point x="1038.5" y="-42" type="curve" smooth="yes"/>
      <point x="889.5" y="-42"/>
      <point x="754" y="77.5"/>
    </contour>
    <contour>
      <point x="903" y="275" type="curve" smooth="yes"/>
      <point x="903" y="153.5"/>
      <point x="951" y="22"/>
      <point x="1038.5" y="22" type="curve" smooth="yes"/>
      <point x="1137.5" y="22"/>
      <point x="1175" y="150.5"/>
      <point x="1175" y="277.5" type="curve" smooth="yes"/>
      <point x="1175" y="402"/>
      <point x="1125.5" y="538.5"/>
      <point x="1036" y="538.5" type="curve" smooth="yes"/>
      <point x="936.5" y="538.5"/>
      <point x="903" y="393"/>
    </contour>
  </outline>
</glyph>
<glyph name="two.osf" format="1">
  <advance width="991"/>
  <outline>
    <contour>
      <point x="66" y="91.5" type="line" smooth="no"/>
      <point x="371.5" y="343.5" type="line" smooth="no"/>
      <point x="561.5" y="500"/>
      <point x="662" y="644.5"/>
      <point x="662" y="837" type="curve" smooth="yes"/>
      <point x="662" y="987"/>
      <point x="587.912" y="1087.83"/>
      <point x="463.018" y="1087.83" type="curve" smooth="yes"/>
      <point x="337.23" y="1087.83"/>
      <point x="220.875" y="962.219"/>
      <point x="180" y="816.5" type="curve" smooth="no"/>
      <point x="99.5" y="846.5" type="line" smooth="no"/>
      <point x="129.5" y="1003.5"/>
      <point x="301.519" y="1206.79"/>
      <point x="525.5" y="1209" type="curve" smooth="yes"/>
      <point x="741" y="1211"/>
      <point x="863.5" y="1067"/>
      <point x="863.5" y="860" type="curve" smooth="yes"/>
      <point x="863.5" y="605.5"/>
      <point x="623.5" y="415"/>
      <point x="378" y="223" type="curve" smooth="no"/>
      <point x="275.5" y="143" type="line" smooth="no"/>
      <point x="784" y="143" type="line" smooth="no"/>
      <point x="881" y="364.5" type="line" smooth="no"/>
      <point x="949" y="353.5" type="line" smooth="no"/>
      <point x="891.5" y="0" type="line" smooth="no"/>
      <point x="74" y="0" type="line" smooth="no"/>
    </contour>
  </outline>
</glyph>
<glyph name="uni1E9E.alt" format="1">
  <advance width="1585"/>
  <outline>
    <contour>
      <point x="147" y="0" type="line" smooth="no"/>
      <point x="155.5" y="71.5" type="line" smooth="no"/>
      <point x="363.5" y="119.5" type="line" smooth="no"/>
      <point x="363.5" y="897" type="line" smooth="yes"/>
      <point x="363.5" y="1344.5"/>
      <point x="550.5" y="1571"/>
      <point x="960.5" y="1571" type="curve" smooth="yes"/>
      <point x="1185.5" y="1571"/>
      <point x="1397.5" y="1550.5"/>
      <point x="1485" y="1524" type="curve" smooth="no"/>
      <point x="1486" y="1460" type="line" smooth="no"/>
      <point x="1083" y="927" type="line" smooth="no"/>
      <point x="1266.5" y="819.5"/>
      <point x="1608.5" y="699"/>
      <point x="1608.5" y="399" type="curve" smooth="yes"/>
      <point x="1608.5" y="139"/>
      <point x="1402" y="-31"/>
      <point x="1104.5" y="-31" type="curve" smooth="yes"/>
      <point x="926" y="-31"/>
      <point x="766.5" y="48"/>
      <point x="693" y="152" type="curve" smooth="no"/>
      <point x="719.5" y="494" type="line" smooth="no"/>
      <point x="813" y="480" type="line" smooth="no"/>
      <point x="853.5" y="228.5" type="line" smooth="no"/>
      <point x="903.5" y="138"/>
      <point x="1023.5" y="70.5"/>
      <point x="1151" y="70.5" type="curve" smooth="yes"/>
      <point x="1304" y="70.5"/>
      <point x="1426.5" y="159"/>
      <point x="1426.5" y="329.5" type="curve" smooth="yes"/>
      <point x="1426.5" y="575.5"/>
      <point x="1065.5" y="715"/>
      <point x="874.5" y="822" type="curve" smooth="no"/>
      <point x="847.5" y="877.5" type="line" smooth="no"/>
      <point x="1256.5" y="1430" type="line" smooth="no"/>
      <point x="1256.5" y="1435" type="line" smooth="no"/>
      <point x="1196.5" y="1459"/>
      <point x="992.5" y="1483.5"/>
      <point x="914" y="1483.5" type="curve" smooth="yes"/>
      <point x="634.5" y="1483.5"/>
      <point x="545.5" y="1250.5"/>
      <point x="545.5" y="925.5" type="curve" smooth="yes"/>
      <point x="545.5" y="0" type="line" smooth="no"/>
    </contour>
  </outline>
</glyph>
